# xmcd
# Copyright (C) 1995-1998 Ti Kan
#
# Track frame offsets:
#       150
#       10700
#       20650
#       37950
#       47737
#       58012
#       72450
#       83887
#       95437
#       112650
#       130537
#       143287
#
# Disc length: 2274 seconds
#
# Revision: 0
# Processed by: cddbd v1.5.1PL0 Copyright (c) Steve Scherf et al.
# Submitted via: CD-Transfer v1.0
#
DISCID=8d08e00c
DTITLE=Various Artist - 
DYEAR=96
DGENRE=
TTITLE0=Jack "Bongo" Burger     Jordu
TTITLE1=Arthur Lyman     Good morning starshine
TTITLE2=Bob Florence Big Band     Claire de Lune
TTITLE3=Harry Zimmerman     The girl that I marry
TTITLE4=Jerry Wiggins     Finaglin'
TTITLE5=Arthur Lyman     Arrive derce Roma
TTITLE6=The In Group     Cherry Beat
TTITLE7=Bob Florence Big Band      Green eyes
TTITLE8=Jack "Bongo" Burger     Negre Setin 
TTITLE9=Jerry Wiggins     Concerto for love
TTITLE10=Oscar Moore Trio     Come in out of the rain
TTITLE11=James Bond and his Sextett     You only live twice
EXTD=
EXTT0=
EXTT1=
EXTT2=
EXTT3=
EXTT4=
EXTT5=
EXTT6=
EXTT7=
EXTT8=
EXTT9=
EXTT10=
EXTT11=
PLAYORDER=
